<?xml version="1.0" standalone="no"?>
<!DOCTYPE svg PUBLIC "-//W3C//DTD SVG 20010904//EN"
 "http://www.w3.org/TR/2001/REC-SVG-20010904/DTD/svg10.dtd">
<svg version="1.0" xmlns="http://www.w3.org/2000/svg"
 width="512.000000pt" height="512.000000pt" viewBox="0 0 512.000000 512.000000"
 preserveAspectRatio="xMidYMid meet">
<metadata>
Created by potrace 1.14, written by Peter Selinger 2001-2017
</metadata>
<g transform="translate(0.000000,512.000000) scale(0.100000,-0.100000)"
fill="#000000" stroke="none">
<path d="M2989 4570 c-15 -4 -46 -10 -70 -13 -179 -22 -391 -182 -464 -352
-78 -179 -83 -268 -84 -1422 -1 -512 -4 -938 -7 -947 -3 -9 -17 -16 -30 -16
-21 0 -42 7 -129 39 -297 113 -509 364 -613 726 -36 123 -43 165 -72 405 -11
97 -4 494 9 540 6 19 11 51 11 72 0 79 62 300 118 418 66 141 196 301 290 355
17 11 32 22 32 26 0 14 -41 97 -53 107 -14 12 -59 4 -112 -18 -38 -16 -80 -33
-125 -51 -19 -7 -58 -28 -87 -46 -29 -18 -55 -33 -58 -33 -3 0 -11 -4 -18 -10
-7 -5 -41 -33 -77 -62 -176 -141 -308 -331 -382 -549 -41 -121 -58 -184 -58
-215 0 -16 -5 -45 -10 -64 -17 -58 -23 -344 -10 -455 23 -193 30 -227 75 -375
56 -182 177 -384 314 -520 82 -81 158 -150 167 -150 2 0 25 -15 51 -34 80 -56
262 -142 373 -175 19 -6 57 -18 83 -26 26 -8 55 -15 64 -15 9 0 30 -4 47 -9
17 -5 64 -14 105 -21 41 -6 81 -15 88 -22 10 -8 13 -127 13 -619 l0 -609 190
0 190 0 2 612 3 612 45 13 c25 7 79 18 120 23 273 36 440 94 645 224 329 209
586 605 644 991 6 39 15 100 21 136 5 36 10 114 10 174 0 102 -3 136 -32 310
-62 386 -349 764 -717 946 -160 78 -409 128 -502 99z m177 -335 c32 -8 62 -19
68 -25 5 -5 16 -10 24 -10 23 0 132 -83 188 -141 52 -56 116 -145 152 -214 37
-71 72 -153 72 -169 0 -8 4 -17 9 -20 4 -3 11 -18 15 -33 3 -16 15 -59 26 -98
11 -38 20 -83 20 -100 0 -16 7 -52 15 -79 18 -59 21 -496 4 -561 -6 -22 -15
-68 -19 -102 -19 -134 -105 -338 -191 -454 -128 -174 -330 -310 -544 -368
-162 -43 -225 -50 -244 -27 -8 10 -11 283 -10 1017 1 1070 4 1141 49 1233 26
55 76 116 94 116 7 0 18 6 24 12 36 36 156 47 248 23z"/>
</g>
</svg>
